<?xml version="1.0" encoding="UTF-8"?>
<svg version="1.1" xmlns="http://www.w3.org/2000/svg" width="2000" height="2000">
<path d="M0 0 C660 0 1320 0 2000 0 C2000 660 2000 1320 2000 2000 C1340 2000 680 2000 0 2000 C0 1340 0 680 0 0 Z " fill="#5C6A35" transform="translate(0,0)"/>
<path d="M0 0 C1.61780801 0.00028283 3.23561614 0.00012226 4.85342407 -0.0004425 C9.19957539 -0.00072673 13.5456985 0.00510885 17.89184332 0.01213145 C22.45085344 0.01842793 27.00986437 0.01897373 31.56887817 0.02015686 C40.18158134 0.02325175 48.79427165 0.03144007 57.40696919 0.04150635 C67.22089013 0.052725 77.03481171 0.05819237 86.84873748 0.06320179 C107.01781781 0.07362442 127.18688661 0.09118783 147.35595703 0.11352539 C147.42646182 21.29090341 147.47914618 42.4682617 147.51139355 63.64573383 C147.52677355 73.48179899 147.54769038 83.31779066 147.58227539 93.15380859 C147.61245257 101.74042813 147.63159617 110.32699437 147.63822252 118.91366547 C147.64208756 123.44794112 147.65097846 127.9820645 147.6731472 132.51629066 C147.79239605 157.90483036 147.25458498 182.93961765 141.41845703 207.80102539 C141.15395752 208.97125244 140.88945801 210.14147949 140.61694336 211.34716797 C140.10044942 213.61725104 139.57739938 215.88585705 139.04638672 218.15258789 C138.47229242 220.61461607 137.92517583 223.07930333 137.39501953 225.55102539 C124.59775838 281.9059369 91.52678565 332.95407654 51.23095703 373.48852539 C50.72584595 373.99899414 50.22073486 374.50946289 49.70031738 375.03540039 C42.92634569 381.86381904 35.92906815 388.16125596 28.35595703 394.11352539 C27.75460937 394.59450684 27.15326172 395.07548828 26.53369141 395.57104492 C-7.50069209 422.70100094 -46.02040381 441.68350119 -87.64404297 454.11352539 C-88.83255859 454.47317383 -90.02107422 454.83282227 -91.24560547 455.20336914 C-99.42400276 457.49627898 -107.67477328 459.17043201 -116.01904297 460.73852539 C-117.6483374 461.04777954 -117.6483374 461.04777954 -119.31054688 461.36328125 C-169.39613192 470.51260444 -219.04372605 465.11352539 -270.64404297 465.11352539 C-270.64404297 700.73352539 -270.64404297 936.35352539 -270.64404297 1179.11352539 C-264.04404297 1179.44352539 -257.44404297 1179.77352539 -250.64404297 1180.11352539 C-172.19268308 1186.50713842 -93.00586258 1211.82052979 -32.01904297 1262.80102539 C-18.38198569 1274.02339328 -1.67790617 1283.46753626 16.35595703 1284.11352539 C17.61150391 1284.16508789 18.86705078 1284.21665039 20.16064453 1284.26977539 C34.87196379 1284.6803554 48.09264712 1281.23520343 62.15795898 1277.31518555 C81.60125425 1271.95186531 101.07513538 1269.75096979 121.20825195 1269.79785156 C124.02285916 1269.80100233 126.83640118 1269.77748215 129.65087891 1269.75219727 C186.66936985 1269.55547354 244.12464669 1292.61130037 285.63720703 1331.58227539 C287.93508666 1333.72168057 290.2725451 1335.77371529 292.66845703 1337.80102539 C296.63812262 1341.26737959 300.00990677 1345.04817066 303.35595703 1349.11352539 C304.00588623 1349.89493896 304.00588623 1349.89493896 304.66894531 1350.69213867 C321.24971415 1370.68907404 333.75789997 1391.97265825 343.35595703 1416.11352539 C343.83935547 1417.31879883 344.32275391 1418.52407227 344.82080078 1419.76586914 C349.48390293 1432.53353221 354.35595703 1449.42108151 354.35595703 1463.11352539 C381.41595703 1463.11352539 408.47595703 1463.11352539 436.35595703 1463.11352539 C436.35595703 1478.62352539 436.35595703 1494.13352539 436.35595703 1510.11352539 C-46.10404297 1510.11352539 -528.56404297 1510.11352539 -1025.64404297 1510.11352539 C-1025.64404297 1494.60352539 -1025.64404297 1479.09352539 -1025.64404297 1463.11352539 C-998.25404297 1463.11352539 -970.86404297 1463.11352539 -942.64404297 1463.11352539 C-941.98404297 1457.50352539 -941.32404297 1451.89352539 -940.64404297 1446.11352539 C-939.99079847 1442.75188517 -939.32668551 1439.53176322 -938.45654297 1436.23852539 C-938.24223633 1435.41102783 -938.02792969 1434.58353027 -937.80712891 1433.73095703 C-930.15548016 1405.19961473 -916.44478502 1378.87305464 -897.64404297 1356.11352539 C-897.16966797 1355.53763672 -896.69529297 1354.96174805 -896.20654297 1354.3684082 C-887.40755598 1343.75348445 -878.21761407 1333.92422799 -867.39794922 1325.31665039 C-865.62903058 1323.90151548 -863.88406839 1322.45560111 -862.17138672 1320.97290039 C-822.25651629 1286.67202256 -766.45529415 1269.90915066 -714.51904297 1269.86352539 C-713.47174515 1269.86251328 -713.47174515 1269.86251328 -712.40328979 1269.86148071 C-687.15871471 1269.8998545 -661.48671037 1273.39135848 -637.44873047 1281.26586914 C-615.4695801 1287.90859286 -592.61735941 1284.30431084 -572.45458984 1274.10522461 C-566.78438506 1270.9994571 -561.88907402 1266.84127362 -556.96240234 1262.69995117 C-538.3860333 1247.08822316 -518.26455052 1234.1128044 -496.64404297 1223.11352539 C-495.79310059 1222.6784668 -494.9421582 1222.2434082 -494.06542969 1221.79516602 C-451.39531967 1200.19459721 -404.00240663 1187.77488875 -356.70654297 1181.73852539 C-355.44181152 1181.57070557 -354.17708008 1181.40288574 -352.87402344 1181.22998047 C-340.93745655 1179.81629912 -329.92519145 1180.11352539 -317.64404297 1180.11352539 C-317.64404297 1071.21352539 -317.64404297 962.31352539 -317.64404297 850.11352539 C-344.04404297 850.11352539 -370.44404297 850.11352539 -397.64404297 850.11352539 C-427.97403401 845.44737292 -427.97403401 845.44737292 -437.01904297 842.86352539 C-438.08952881 842.56397949 -439.16001465 842.26443359 -440.26293945 841.95581055 C-465.46292282 834.69463922 -489.69698457 822.9334822 -510.64404297 807.11352539 C-511.26875488 806.64672363 -511.8934668 806.17992187 -512.53710938 805.69897461 C-519.02653472 800.82401598 -525.23804904 795.82994119 -530.85107422 789.94165039 C-532.71578042 788.04038132 -534.67368725 786.33274051 -536.70654297 784.61352539 C-540.77964274 781.08298138 -544.20822877 777.25953582 -547.64404297 773.11352539 C-548.10439941 772.57083008 -548.56475586 772.02813477 -549.0390625 771.46899414 C-568.04701217 749.04597553 -582.11919118 723.94509361 -591.64404297 696.11352539 C-592.05138672 694.92500977 -592.45873047 693.73649414 -592.87841797 692.51196289 C-593.88356169 689.39601734 -594.78721267 686.27332942 -595.64404297 683.11352539 C-595.98048828 681.90825195 -596.31693359 680.70297852 -596.66357422 679.46118164 C-600.07839784 666.5556023 -601.31778083 653.36719225 -602.64404297 640.11352539 C-602.72540119 639.41929254 -602.80675941 638.72505968 -602.89058304 638.00978947 C-603.61235833 631.55263641 -603.7806521 625.19034131 -603.75756836 618.69702148 C-603.75771439 617.60316132 -603.75786041 616.50930115 -603.75801086 615.3822937 C-603.75731942 611.80049593 -603.74956328 608.21875148 -603.74169922 604.63696289 C-603.73983231 602.14018787 -603.73840969 599.64341248 -603.7374115 597.14663696 C-603.73360784 590.6003924 -603.72379606 584.0541703 -603.71270752 577.50793457 C-603.70190045 570.81787553 -603.69790396 564.12780947 -603.69287109 557.43774414 C-603.68217174 544.32966168 -603.66531572 531.22159474 -603.64404297 518.11352539 C-589.22934403 518.06637018 -574.81465741 518.03146081 -560.39989662 518.00990105 C-553.7037436 517.999679 -547.0076489 517.98553605 -540.31152344 517.96264648 C-533.82754387 517.9406254 -527.34361419 517.92889633 -520.85960007 517.9237709 C-518.40817863 517.92012687 -515.95675935 517.91301453 -513.50535965 517.90206528 C-500.84892337 517.84787701 -488.27828898 518.0509482 -475.65332031 519.00463867 C-474.6164892 519.08287306 -473.57965809 519.16110744 -472.51140785 519.24171257 C-423.34489935 523.3566949 -375.76319717 546.90073915 -340.64404297 581.11352539 C-340.05316895 581.68393555 -339.46229492 582.2543457 -338.85351562 582.84204102 C-337.00416335 584.6322101 -335.16577979 586.4328792 -333.33154297 588.23852539 C-332.78095215 588.77590332 -332.23036133 589.31328125 -331.66308594 589.86694336 C-328.3411323 593.18293477 -325.35095915 596.66169585 -322.43237305 600.33959961 C-321.72043289 601.23508514 -321.00849274 602.13057068 -320.27497864 603.05319214 C-319.73676987 603.73310211 -319.1985611 604.41301208 -318.64404297 605.11352539 C-318.64344588 604.45762712 -318.64284879 603.80172884 -318.64223361 603.12595487 C-318.60623473 564.13589971 -318.54943587 525.14592346 -318.46612202 486.15593947 C-318.45610617 481.46032389 -318.44626177 476.76470796 -318.43652344 472.0690918 C-318.43458206 471.13439284 -318.43264069 470.19969387 -318.43064049 469.2366707 C-318.39973269 454.15948402 -318.38267134 439.08231251 -318.37084875 424.00510016 C-318.35837873 408.50115194 -318.33074672 392.99728253 -318.2894299 377.49338412 C-318.26446073 367.948931 -318.25091344 358.40460883 -318.2526134 348.86012259 C-318.25264346 342.28938042 -318.23776948 335.71877029 -318.21187869 329.14807972 C-318.19742375 325.37348158 -318.18886086 321.599154 -318.19824028 317.82453346 C-318.37055285 239.43807963 -288.25932902 164.13271844 -235.64404297 106.11352539 C-234.84256836 105.22745605 -234.84256836 105.22745605 -234.02490234 104.32348633 C-200.21069734 67.05426279 -157.14102793 37.1538398 -109.64404297 20.11352539 C-108.65275391 19.75307129 -107.66146484 19.39261719 -106.64013672 19.02124023 C-84.51957922 11.05851808 -61.45271476 4.24334893 -37.91748047 2.40258789 C-34.86125416 2.22680566 -34.86125416 2.22680566 -32.82756233 1.63017178 C-22.34248901 -0.85072 -10.72824545 -0.02666143 0 0 Z " fill="#FEFEFE" transform="translate(1294.64404296875,244.886474609375)"/>
<path d="M0 0 C1.5534462 -0.00021904 1.5534462 -0.00021904 3.13827515 -0.0004425 C6.5144063 0.00024648 9.89048021 0.00799071 13.26660156 0.01586914 C15.6259966 0.01773693 17.98539203 0.01915913 20.3447876 0.02015686 C26.51946099 0.02395361 32.69411042 0.03375929 38.86877441 0.04486084 C45.18367183 0.05513641 51.49857317 0.05966759 57.81347656 0.06469727 C70.17807035 0.07538439 82.54264646 0.09242624 94.90722656 0.11352539 C94.95430779 14.33653944 94.98925621 28.55954112 95.01085091 42.78261757 C95.02122291 49.38920446 95.03525966 55.99573846 95.05810547 62.60229492 C95.08007138 68.99548222 95.09184447 75.38861911 95.09698105 81.78184128 C95.10063469 84.20307583 95.1077671 86.62430809 95.11868668 89.04552078 C95.44572018 164.66824615 69.5540804 234.21337223 16.90722656 289.11352539 C16.10913574 289.95246338 16.10913574 289.95246338 15.29492188 290.80834961 C7.56154912 298.8964847 -0.46832336 306.13362714 -9.42089844 312.84301758 C-11.01165476 314.05188088 -12.56897253 315.30437672 -14.12402344 316.55883789 C-51.22182001 346.29444287 -97.57133471 362.82708309 -144.09277344 370.11352539 C-145.11776443 370.28537354 -146.14275543 370.45722168 -147.19880676 370.63427734 C-151.58277262 371.1738318 -155.83056578 371.24625345 -160.2409668 371.22705078 C-161.1295639 371.22719681 -162.01816101 371.22734283 -162.9336853 371.22749329 C-165.85002138 371.22680057 -168.76629236 371.21903836 -171.68261719 371.21118164 C-173.71285467 371.20931518 -175.7430926 371.20789235 -177.77333069 371.20689392 C-183.10142269 371.2030867 -188.42948718 371.19327181 -193.75756836 371.18218994 C-199.20067981 371.17193716 -204.64379573 371.16738803 -210.08691406 371.16235352 C-220.7555459 371.15164787 -231.42415738 371.13459309 -242.09277344 371.11352539 C-237.34971995 365.41035144 -232.27162073 360.1538726 -227.01919556 354.91969299 C-226.11568749 354.0153305 -225.21217942 353.11096801 -224.28129232 352.17920059 C-221.78873984 349.68442404 -219.29310035 347.19275619 -216.79692197 344.7016083 C-214.09988813 342.00890891 -211.40576132 339.31330361 -208.71127319 336.61805725 C-204.04757866 331.95383938 -199.3820625 327.29145017 -194.71529007 322.63031197 C-187.96799372 315.89115635 -181.22347336 309.14922812 -174.47961871 302.4066286 C-163.53703408 291.46623044 -152.59221999 280.52806547 -141.64599609 269.59130859 C-131.01526458 258.96976166 -120.385588 248.34716079 -109.75732422 237.72314453 C-109.10176153 237.06784457 -108.44619885 236.41254461 -107.77077062 235.73738707 C-104.48188154 232.44980306 -101.19301314 229.16219835 -97.90415502 225.87458336 C-70.63690044 198.61768881 -43.3660243 171.36441998 -16.09277344 144.11352539 C-17.45836232 141.27978297 -18.74273575 139.21704102 -20.98193359 136.99731445 C-21.56238434 136.41701477 -22.14283508 135.83671509 -22.74087524 135.23883057 C-23.36489227 134.62513611 -23.9889093 134.01144165 -24.63183594 133.37915039 C-25.27269135 132.74112488 -25.91354675 132.10309937 -26.57382202 131.44573975 C-28.61715165 129.4135847 -30.66733326 127.38850321 -32.71777344 125.36352539 C-34.10625204 123.98508009 -35.49427834 122.60617903 -36.88183594 121.22680664 C-40.28026041 117.85040645 -43.68484597 114.48033251 -47.09277344 111.11352539 C-51.40950326 112.77458632 -54.2984459 116.04437027 -57.48701477 119.26052856 C-58.12661123 119.89771061 -58.76620769 120.53489265 -59.42518586 121.19138324 C-61.57087738 123.33143138 -63.70933552 125.47856428 -65.84790039 127.62573242 C-67.38348896 129.16024822 -68.91951035 130.69433101 -70.45593262 132.22801208 C-74.63211618 136.39934154 -78.80201098 140.57690642 -82.97069573 144.75572824 C-87.33502471 149.12883599 -91.70462009 153.49667564 -96.0735321 157.86520386 C-103.41498444 165.2075934 -110.7525506 172.55384849 -118.08764648 179.90258789 C-126.55937341 188.39001459 -135.03628559 196.87222601 -143.51623374 205.3514396 C-152.54866954 214.3831987 -161.57728696 223.41876748 -170.60479712 232.45544958 C-173.2023956 235.0551758 -175.80070076 237.65419393 -178.3991642 240.25305557 C-182.49152616 244.34642559 -186.58131554 248.44234934 -190.66916656 252.54022408 C-192.16666048 254.04062772 -193.66498847 255.54019946 -195.16422844 257.03885841 C-197.21767133 259.09180683 -199.26799278 261.14782472 -201.31758118 263.20462036 C-201.90534169 263.79083227 -202.4931022 264.37704418 -203.09867364 264.98102009 C-206.72080198 268.62406555 -210.14652094 272.39438557 -213.49572116 276.29002321 C-216.00527077 279.15540793 -218.68193474 281.84230061 -221.37939453 284.52954102 C-221.96402466 285.11592346 -222.54865479 285.70230591 -223.15100098 286.30645752 C-225.05359063 288.21339291 -226.95974758 290.11671337 -228.86621094 292.01977539 C-230.19917146 293.35341041 -231.53198359 294.68719378 -232.86465454 296.02111816 C-235.64171054 298.7996407 -238.42054809 301.5763655 -241.20068359 304.35180664 C-244.77200597 307.91739327 -248.33876774 311.48750321 -251.90424156 315.05893707 C-254.64752263 317.8058189 -257.39316499 320.55033046 -260.13954544 323.29411316 C-261.45685949 324.6107586 -262.77342691 325.92815149 -264.08924484 327.24629211 C-265.91793605 329.07750604 -267.74977234 330.90551274 -269.58251953 332.73266602 C-270.12897125 333.28114197 -270.67542297 333.82961792 -271.23843384 334.39471436 C-274.97850303 338.11352539 -274.97850303 338.11352539 -276.09277344 338.11352539 C-276.18655879 327.10613405 -276.25707725 316.09884183 -276.30002213 305.09112835 C-276.3206612 299.9766216 -276.34852979 294.86239338 -276.39453125 289.74804688 C-276.59214835 267.1750699 -276.61804849 245.322286 -272.09277344 223.11352539 C-271.90289352 222.13923584 -271.71301361 221.16494629 -271.51737976 220.16113281 C-263.27231707 177.94782297 -244.45136456 138.92944033 -218.09277344 105.11352539 C-217.40957031 104.23567383 -216.72636719 103.35782227 -216.02246094 102.45336914 C-209.48772677 94.26686637 -202.31885553 86.68575355 -195.09277344 79.11352539 C-194.33738281 78.3155957 -193.58199219 77.51766602 -192.80371094 76.69555664 C-187.62359976 71.35556549 -181.93462168 66.70657889 -176.09277344 62.11352539 C-175.47225098 61.62190918 -174.85172852 61.13029297 -174.21240234 60.6237793 C-144.32095351 37.01760956 -110.18319471 18.50633883 -73.09277344 9.11352539 C-72.29967773 8.9038916 -71.50658203 8.69425781 -70.68945312 8.47827148 C-54.9926874 4.36864957 -39.2354476 2.50805536 -23.09277344 1.11352539 C-22.23973318 1.03267858 -21.38669292 0.95183176 -20.50780296 0.86853504 C-13.65219511 0.24652778 -6.88142852 -0.02609675 0 0 Z " fill="#5C6A35" transform="translate(1300.0927734375,291.886474609375)"/>
<path d="M0 0 C8.68559158 -0.04678742 17.37113835 -0.08210085 26.05682945 -0.10362434 C30.09196874 -0.11396577 34.12702046 -0.12794346 38.16210938 -0.15087891 C72.65375748 -0.34153788 72.65375748 -0.34153788 87 2 C88.02287109 2.15581543 89.04574219 2.31163086 90.09960938 2.47216797 C126.56817581 8.51013597 158.23940497 27.15087604 185 52 C185.59296875 52.53882813 186.1859375 53.07765625 186.796875 53.6328125 C218.26396988 83.45163098 236.46365454 129.22217858 238 172 C238.22511555 182.66472359 238.12997978 193.33465875 238 204 C234.27310105 202.44270774 231.90541253 200.15304506 229.06713867 197.31005859 C228.59012009 196.83493835 228.1131015 196.35981812 227.62162781 195.87030029 C226.04881626 194.30118688 224.48331429 192.72499635 222.91796875 191.1484375 C221.81980817 190.0490835 220.72127623 188.95010035 219.62239075 187.85147095 C217.31863417 185.54615068 215.01827238 183.23751341 212.72045898 180.92626953 C209.79381662 177.9827277 206.86072619 175.04572006 203.92524242 172.11099815 C201.65395656 169.83943839 199.38530179 167.56526588 197.11748695 165.29024124 C196.03813587 164.20773486 194.95820177 163.12580943 193.87764549 162.04450607 C192.356263 160.52092108 190.83823631 158.99406584 189.32104492 157.46630859 C188.46040939 156.60186127 187.59977386 155.73741394 186.71305847 154.84677124 C184.63455368 152.66582759 182.65323677 150.46464014 180.68756104 148.18557739 C176.86777855 143.78791103 172.80548511 139.6719494 168.67797852 135.56445312 C167.87716354 134.76349213 167.07634857 133.96253113 166.25126648 133.13729858 C163.62951228 130.5162356 161.00424438 127.89872278 158.37890625 125.28125 C156.55023187 123.45444261 154.72177956 121.62741288 152.89353943 119.8001709 C148.58903814 115.49908488 144.28231966 111.20023089 139.97449392 106.90247488 C135.06553775 102.00474193 130.1594609 97.10412901 125.25360978 92.20328617 C115.17224733 82.13234308 105.0873197 72.06497597 95 62 C91.28033639 63.73807981 88.9312993 65.85173998 86.04296875 68.796875 C85.57691727 69.26812805 85.11086578 69.7393811 84.63069153 70.22491455 C83.1447688 71.72857839 81.66570038 73.23874699 80.1875 74.75 C68.44871454 86.71151443 68.44871454 86.71151443 62 92 C62.42809926 96.43421739 65.46411873 98.87009844 68.47315979 101.82719421 C69.0497951 102.40568723 69.62643041 102.98418025 70.22053951 103.58020335 C72.15893421 105.52120249 74.1078641 107.4512671 76.05688477 109.3815918 C77.44682805 110.76905244 78.83610466 112.15718123 80.22476196 113.54592896 C84.00106066 117.31881153 87.78646598 121.08243884 91.57339597 124.84464622 C95.52819237 128.77700034 99.47413426 132.71821755 103.42088318 136.65864563 C110.89846837 144.12173319 118.38324265 151.57756458 125.87096494 159.03048021 C139.2919959 172.38959384 152.70084683 185.76092796 166.10702366 199.13494617 C170.81653836 203.83259077 175.52920832 208.52704127 180.24448979 213.21889722 C183.16967004 216.13030156 186.09290298 219.04365545 189.01568985 221.95746231 C190.37741545 223.31409643 191.74001538 224.66985356 193.10352516 226.02469444 C194.95588614 227.86546198 196.8052234 229.70921388 198.65382385 231.55375671 C199.20176544 232.0967391 199.74970703 232.63972149 200.31425291 233.19915789 C204 236.88596404 204 236.88596404 204 238 C198.52720985 238.07560173 193.05474023 238.12926698 187.58154297 238.16479492 C185.72960094 238.17964495 183.87769247 238.19993027 182.02587891 238.22631836 C143.86911653 238.75540887 107.19865213 228.27307494 76 206 C75.42491699 205.59313965 74.84983398 205.1862793 74.25732422 204.76708984 C36.82698735 177.99042426 10.23726865 136.91266512 2.5 91.375 C1.94929199 87.9223002 1.44940032 84.46726636 1 81 C0.83037247 79.78317535 0.66074493 78.56635071 0.48597717 77.31265259 C-0.00953394 73.32513005 -0.12050696 69.41200857 -0.11352539 65.390625 C-0.11367142 64.67744614 -0.11381744 63.96426727 -0.1139679 63.22947693 C-0.11327853 60.90295224 -0.10553253 58.57651047 -0.09765625 56.25 C-0.09578859 54.6247563 -0.09436633 52.99951204 -0.09336853 51.37426758 C-0.08957073 47.11971451 -0.07976413 42.86519618 -0.06866455 38.61065674 C-0.05839127 34.25997385 -0.05385829 29.9092853 -0.04882812 25.55859375 C-0.03813913 17.03904665 -0.02109599 8.51952766 0 0 Z " fill="#5C6A36" transform="translate(739,810)"/>
</svg>
